<svg id="svg" version="1.1" xmlns="http://www.w3.org/2000/svg" xmlns:xlink="http://www.w3.org/1999/xlink" width="400" height="400" viewBox="0, 0, 400,400"><g id="svgg"><path id="path0" d="M205.600 50.845 C 201.162 51.139,196.383 51.787,190.800 52.853 C 189.810 53.042,188.010 53.371,186.800 53.585 C 185.590 53.799,183.880 54.172,183.000 54.414 C 182.120 54.655,180.770 54.998,180.000 55.174 C 178.524 55.512,170.365 58.185,169.000 58.778 C 168.560 58.969,166.220 59.899,163.800 60.844 C 158.943 62.742,149.714 67.333,146.997 69.202 C 146.040 69.861,145.141 70.400,145.000 70.400 C 144.693 70.400,142.500 71.873,136.553 76.073 C 124.970 84.254,111.252 98.035,104.021 108.753 L 102.298 111.306 103.649 111.036 C 110.269 109.713,116.000 110.982,116.000 113.770 C 116.000 115.364,113.127 121.025,111.619 122.400 C 111.499 122.510,110.597 123.590,109.616 124.800 C 104.847 130.681,89.846 145.623,85.120 149.200 C 84.046 150.012,83.187 151.020,83.073 151.600 C 82.965 152.150,82.484 154.040,82.004 155.800 C 81.525 157.560,80.974 159.810,80.779 160.800 C 80.585 161.790,80.150 163.860,79.813 165.400 C 79.476 166.940,79.200 168.680,79.200 169.267 C 79.200 169.853,79.011 170.396,78.780 170.473 C 78.549 170.550,79.054 171.690,79.902 173.007 C 80.750 174.323,81.875 176.168,82.400 177.107 C 83.702 179.434,83.790 179.352,87.216 172.570 C 90.685 165.706,92.541 162.287,93.633 160.754 C 94.055 160.161,94.400 159.563,94.400 159.425 C 94.400 159.159,99.963 150.742,100.365 150.400 C 100.494 150.290,101.315 149.311,102.188 148.226 C 104.204 145.719,105.933 143.990,107.870 142.545 C 108.712 141.918,109.490 141.313,109.600 141.201 C 112.187 138.568,119.784 136.000,124.986 136.000 C 136.847 136.000,134.241 142.349,114.200 162.279 C 100.902 175.504,97.774 178.007,89.400 182.126 C 88.080 182.775,86.942 183.356,86.871 183.416 C 86.645 183.607,88.027 186.044,90.594 189.984 C 96.624 199.235,99.200 203.312,99.200 203.602 C 99.200 205.345,100.587 203.900,102.389 200.280 C 103.505 198.036,104.891 195.390,105.469 194.400 C 106.046 193.410,107.065 191.610,107.732 190.400 C 112.992 180.867,120.020 171.618,124.603 168.197 C 125.481 167.541,126.290 166.913,126.400 166.801 C 129.038 164.117,136.496 161.606,141.840 161.602 C 153.889 161.595,152.355 166.335,134.471 184.387 C 129.559 189.344,124.699 194.076,123.671 194.902 C 122.642 195.729,121.080 197.049,120.200 197.835 C 116.507 201.137,105.130 208.000,103.350 208.000 C 102.102 208.000,102.348 208.447,110.117 220.300 C 112.749 224.315,115.104 227.596,115.351 227.591 C 115.598 227.586,116.656 225.831,117.701 223.691 C 118.747 221.551,119.917 219.264,120.301 218.608 C 120.686 217.952,121.675 216.269,122.500 214.867 C 123.325 213.465,124.000 212.234,124.000 212.131 C 124.000 210.963,133.421 198.138,136.584 195.000 C 143.590 188.049,154.709 183.824,160.399 185.951 C 161.060 186.198,162.124 186.595,162.765 186.834 C 165.213 187.746,163.249 194.486,159.627 197.600 C 159.500 197.710,158.766 198.641,157.997 199.670 C 156.314 201.922,143.552 214.652,138.800 218.819 C 136.930 220.458,135.310 221.890,135.200 222.000 C 132.720 224.480,124.535 229.570,119.700 231.639 C 117.882 232.417,117.812 232.253,123.734 241.064 C 131.915 253.235,133.303 255.183,133.643 254.974 C 133.815 254.867,134.690 253.299,135.586 251.490 C 136.482 249.680,137.631 247.480,138.139 246.600 C 138.646 245.720,139.648 243.927,140.364 242.616 C 141.079 241.305,142.011 239.747,142.433 239.154 C 142.855 238.561,143.200 237.963,143.200 237.825 C 143.200 237.554,148.772 229.132,149.171 228.800 C 149.303 228.690,150.214 227.610,151.195 226.400 C 156.149 220.289,162.401 215.579,167.600 214.040 C 168.590 213.747,169.922 213.348,170.560 213.153 C 173.643 212.214,180.245 213.005,182.023 214.526 C 184.086 216.294,181.487 220.996,173.600 229.766 C 170.532 233.177,161.556 242.051,157.993 245.194 C 156.127 246.841,154.510 248.281,154.400 248.394 C 154.290 248.508,153.390 249.228,152.400 249.994 C 151.410 250.761,150.280 251.661,149.890 251.994 C 148.626 253.072,142.679 256.587,139.710 258.013 C 138.121 258.776,136.816 259.639,136.810 259.932 C 136.801 260.389,141.351 267.437,142.019 268.000 C 142.149 268.110,144.329 271.260,146.863 275.000 C 154.775 286.679,157.739 290.993,157.993 291.200 C 158.128 291.310,158.671 292.030,159.200 292.800 C 159.729 293.570,160.271 294.290,160.404 294.400 C 160.537 294.510,160.906 294.979,161.223 295.443 C 161.914 296.451,164.720 299.821,167.180 302.594 C 169.959 305.727,183.563 319.176,186.204 321.400 C 187.510 322.500,189.158 323.969,189.866 324.664 C 190.575 325.359,191.705 326.253,192.377 326.650 C 193.050 327.047,193.600 327.514,193.600 327.686 C 193.600 328.802,195.534 327.795,203.102 322.738 C 219.255 311.945,225.139 306.759,245.234 285.600 C 258.544 271.586,257.559 272.934,255.445 271.628 C 250.608 268.638,243.553 261.835,237.730 254.546 C 234.662 250.705,233.347 249.341,232.839 249.474 C 232.176 249.647,226.285 248.832,222.350 248.023 C 221.332 247.814,218.902 247.073,216.950 246.376 C 211.188 244.320,210.911 244.332,210.609 246.660 C 210.471 247.727,210.187 249.815,209.979 251.300 C 209.770 252.785,209.432 255.215,209.228 256.700 C 209.023 258.185,208.663 260.795,208.428 262.500 C 208.192 264.205,207.809 266.995,207.576 268.700 C 207.343 270.405,206.994 272.880,206.800 274.200 C 206.606 275.520,206.244 278.040,205.994 279.800 C 205.535 283.044,205.067 285.620,204.380 288.700 C 204.171 289.635,203.809 291.255,203.575 292.300 C 203.097 294.435,202.459 296.906,202.000 298.400 C 201.831 298.950,201.464 300.210,201.184 301.200 C 199.841 305.950,196.067 316.885,194.005 322.000 C 193.518 323.210,192.958 324.612,192.763 325.116 C 192.461 325.895,192.284 325.966,191.581 325.590 C 190.186 324.843,190.258 324.203,192.329 318.915 C 194.211 314.107,197.658 304.011,198.787 300.000 C 199.065 299.010,199.438 297.750,199.615 297.200 C 199.926 296.234,201.274 290.683,201.995 287.400 C 202.465 285.259,203.063 281.694,203.603 277.800 C 203.848 276.040,204.208 273.520,204.405 272.200 C 204.601 270.880,204.959 268.270,205.200 266.400 C 205.441 264.530,205.803 261.920,206.004 260.600 C 206.205 259.280,206.572 256.580,206.819 254.600 C 207.066 252.620,207.433 250.136,207.634 249.080 C 207.835 248.024,208.000 246.548,208.000 245.798 C 208.000 244.879,208.325 244.111,209.000 243.436 C 210.054 242.382,210.247 241.395,209.594 240.400 C 209.080 239.618,208.418 240.505,208.400 242.000 C 208.374 244.109,208.083 244.205,201.959 244.133 C 196.743 244.071,193.194 243.683,189.600 242.783 C 188.830 242.590,187.120 242.168,185.800 241.844 C 184.480 241.521,182.320 240.969,181.000 240.618 C 178.145 239.858,168.264 236.773,168.052 236.575 C 167.970 236.499,169.726 234.480,171.954 232.088 C 174.182 229.697,177.104 226.358,178.448 224.669 L 180.891 221.598 183.745 223.135 C 190.556 226.800,196.216 230.381,202.653 235.096 C 207.127 238.373,208.463 239.270,208.628 239.105 C 208.723 239.011,208.968 237.958,209.173 236.767 C 209.525 234.723,209.790 232.769,210.783 224.900 C 211.013 223.085,211.379 220.205,211.597 218.500 C 211.816 216.795,212.041 214.590,212.097 213.600 L 212.200 211.800 209.720 211.928 C 205.270 212.159,196.347 211.077,190.800 209.634 C 178.968 206.555,163.160 201.305,159.847 199.353 C 159.143 198.938,159.204 198.772,160.782 196.775 C 165.207 191.176,165.883 187.060,162.515 186.214 C 158.947 185.319,168.213 184.348,172.497 185.169 C 182.538 187.092,193.756 192.914,208.573 203.895 C 213.177 207.307,212.951 207.402,213.591 201.793 C 215.007 189.404,215.563 183.851,215.406 183.682 C 215.346 183.617,212.440 183.495,208.948 183.412 C 200.948 183.221,197.539 182.594,184.200 178.855 C 169.608 174.764,156.311 168.966,154.227 165.784 C 150.861 160.648,165.638 154.996,176.676 157.197 C 185.090 158.874,198.440 166.109,212.399 176.556 C 216.380 179.535,216.030 179.896,216.821 171.994 C 217.052 169.687,217.413 166.180,217.623 164.200 C 217.833 162.220,218.122 159.095,218.265 157.256 C 218.484 154.443,218.680 153.756,219.501 152.936 C 220.380 152.056,220.529 150.395,219.794 149.661 C 219.368 149.235,218.800 150.226,218.800 151.395 C 218.800 153.833,218.090 154.122,212.828 153.829 C 208.065 153.564,203.732 153.026,201.100 152.373 C 198.612 151.755,196.258 151.125,195.200 150.795 C 194.650 150.624,192.850 150.085,191.200 149.598 C 184.490 147.618,176.546 144.862,170.600 142.453 C 163.443 139.553,157.600 135.629,157.600 133.723 C 157.600 132.620,161.031 129.480,163.446 128.374 C 172.453 124.248,184.340 126.100,196.541 133.531 C 198.048 134.449,199.359 135.200,199.454 135.200 C 199.685 135.200,207.829 140.658,209.600 141.999 C 210.370 142.582,212.080 143.855,213.400 144.829 C 214.720 145.802,215.890 146.697,216.000 146.818 C 216.333 147.185,218.710 148.800,218.917 148.800 C 219.147 148.800,220.073 140.870,221.229 129.000 C 221.600 125.197,221.853 124.062,222.448 123.536 C 222.861 123.171,223.264 122.271,223.345 121.536 C 223.479 120.307,223.605 120.197,224.922 120.158 C 225.710 120.135,226.859 119.922,227.477 119.684 C 230.003 118.712,238.482 116.256,243.800 114.957 C 245.120 114.635,246.830 114.215,247.600 114.025 C 248.370 113.834,250.260 113.464,251.800 113.203 C 253.340 112.942,255.355 112.564,256.277 112.364 C 267.218 109.990,281.455 114.797,286.471 122.559 C 288.864 126.261,288.308 127.638,283.889 128.955 C 275.060 131.588,243.583 131.002,233.000 128.008 C 232.120 127.759,230.860 127.404,230.200 127.220 C 229.540 127.035,228.171 126.566,227.158 126.177 C 224.441 125.135,224.170 125.387,223.839 129.264 C 223.683 131.099,223.403 134.040,223.217 135.800 C 222.212 145.341,221.956 148.912,222.261 149.182 C 222.447 149.348,225.013 148.694,227.963 147.730 C 234.824 145.488,239.458 144.211,244.600 143.145 C 245.700 142.916,247.410 142.560,248.400 142.353 C 256.680 140.618,266.151 140.792,271.400 142.777 C 277.180 144.962,283.600 149.818,283.600 152.004 C 283.600 152.282,283.918 152.410,284.335 152.301 C 285.523 151.991,290.023 152.771,292.400 153.700 C 301.977 157.442,308.811 165.882,314.746 181.300 C 314.937 181.795,315.280 182.650,315.509 183.200 C 316.669 185.985,318.829 192.297,320.813 198.700 C 321.307 200.295,321.789 201.600,321.884 201.600 C 322.093 201.600,322.216 201.469,325.994 197.190 C 327.641 195.326,329.081 193.710,329.194 193.600 C 329.868 192.945,337.898 183.721,338.118 183.351 C 338.274 183.087,337.469 182.295,336.160 181.426 C 330.090 177.396,321.806 168.461,314.098 157.630 C 298.360 135.516,296.624 128.076,307.647 129.988 C 318.361 131.847,326.962 140.155,332.920 154.400 C 333.242 155.170,333.782 156.430,334.120 157.200 C 334.458 157.970,335.036 159.410,335.404 160.400 C 335.773 161.390,336.230 162.560,336.420 163.000 C 336.709 163.671,337.740 166.782,341.201 177.428 C 341.806 179.292,341.703 179.751,340.400 181.000 C 339.740 181.632,339.200 182.386,339.200 182.675 C 339.200 183.538,340.286 183.271,341.129 182.200 C 342.016 181.072,342.502 180.959,343.145 181.734 C 343.389 182.028,344.356 182.505,345.294 182.794 C 346.232 183.084,348.309 183.744,349.908 184.260 C 353.678 185.478,353.600 185.496,353.600 183.416 C 353.600 181.750,353.466 180.531,352.371 172.200 C 351.616 166.452,350.314 160.361,348.010 151.800 C 344.918 140.313,337.249 123.782,330.005 112.991 C 319.498 97.339,307.246 84.948,291.200 73.748 C 287.212 70.963,284.573 69.367,279.200 66.486 C 274.690 64.067,273.407 63.452,268.600 61.404 C 267.940 61.123,266.590 60.534,265.600 60.095 C 249.904 53.139,226.188 49.483,205.600 50.845 M187.600 98.006 C 191.517 99.310,198.129 102.482,201.072 104.471 C 201.992 105.092,202.854 105.600,202.987 105.600 C 203.270 105.600,209.940 110.040,212.000 111.600 C 212.770 112.183,215.200 113.986,217.400 115.608 C 222.601 119.441,222.488 119.317,222.001 120.598 C 221.780 121.178,221.600 122.180,221.600 122.826 L 221.600 124.000 217.900 123.997 C 211.026 123.991,204.268 122.764,194.000 119.661 C 187.214 117.609,187.440 117.686,178.400 114.395 C 164.628 109.382,158.788 104.926,161.900 101.807 C 167.297 96.398,178.008 94.814,187.600 98.006 M221.438 154.738 C 221.300 154.962,221.015 156.913,220.806 159.073 C 220.597 161.233,220.234 164.800,220.000 167.000 C 219.316 173.406,218.821 178.541,218.810 179.345 C 218.797 180.310,219.452 180.198,226.600 178.008 C 228.140 177.536,231.740 176.561,234.600 175.840 C 239.554 174.592,240.763 174.322,246.800 173.118 C 250.658 172.349,262.786 172.452,265.600 173.278 C 270.060 174.586,272.889 175.919,272.532 176.544 C 272.389 176.795,272.408 176.877,272.575 176.728 C 272.742 176.578,273.805 177.017,274.939 177.703 C 282.172 182.083,286.516 187.243,291.186 197.004 C 293.558 201.963,293.953 202.840,294.746 204.900 C 294.937 205.395,295.297 206.295,295.546 206.900 C 296.401 208.974,296.720 209.802,297.200 211.200 C 297.464 211.970,297.834 212.960,298.022 213.400 C 298.210 213.840,298.933 216.000,299.629 218.200 C 301.315 223.533,301.544 224.085,302.003 223.931 C 303.222 223.522,318.321 205.787,317.891 205.269 C 317.639 204.965,316.345 203.978,315.017 203.076 C 306.284 197.145,288.617 174.572,282.476 161.497 L 281.000 158.354 279.600 158.552 C 267.728 160.222,241.486 159.793,233.200 157.792 C 232.650 157.659,231.390 157.362,230.400 157.132 C 229.410 156.901,227.340 156.265,225.800 155.718 C 221.841 154.312,221.719 154.284,221.438 154.738 M77.854 178.256 C 77.432 181.340,77.492 181.600,78.626 181.600 C 80.669 181.600,81.361 180.905,80.549 179.671 C 80.162 179.082,79.596 178.105,79.293 177.500 C 78.510 175.938,78.146 176.129,77.854 178.256 M215.899 181.016 C 215.777 181.657,215.870 181.977,216.152 181.885 C 216.708 181.702,216.998 180.000,216.474 180.000 C 216.265 180.000,216.006 180.457,215.899 181.016 M83.600 180.911 C 83.600 181.587,84.744 183.200,85.223 183.200 C 85.771 183.200,85.661 181.914,85.043 181.100 C 84.423 180.283,83.600 180.175,83.600 180.911 M218.246 185.125 C 218.135 185.304,217.855 187.239,217.623 189.425 C 217.390 191.611,217.031 194.930,216.824 196.800 C 216.617 198.670,216.250 202.000,216.008 204.200 C 215.767 206.400,215.494 208.419,215.402 208.687 C 215.175 209.351,215.923 209.756,216.518 209.292 C 216.783 209.085,217.360 208.814,217.800 208.690 C 218.240 208.566,219.860 208.075,221.400 207.599 C 225.372 206.372,231.290 204.737,234.400 204.009 C 237.869 203.196,240.252 202.701,240.868 202.666 C 241.373 202.638,241.446 202.461,241.168 201.941 C 240.629 200.933,240.719 197.761,241.300 197.307 C 242.909 196.048,248.811 195.965,251.800 197.159 C 254.400 198.198,257.395 199.736,258.798 200.753 C 259.719 201.420,260.726 201.840,261.142 201.731 C 264.030 200.976,273.624 205.833,277.145 209.833 C 281.617 214.913,280.836 217.686,274.675 218.610 C 273.129 218.841,272.903 218.986,273.217 219.542 C 273.847 220.660,275.800 225.234,277.170 228.800 C 277.888 230.670,278.633 232.560,278.824 233.000 C 279.015 233.440,279.970 236.224,280.946 239.187 C 282.990 245.392,282.986 245.387,285.000 243.114 C 285.835 242.171,287.347 240.500,288.360 239.400 C 289.888 237.740,292.536 234.800,297.700 229.031 C 298.757 227.851,298.590 227.527,296.097 225.916 C 287.845 220.584,277.085 208.589,267.121 193.613 L 265.400 191.026 263.598 191.137 C 255.931 191.610,234.755 189.790,228.400 188.112 C 227.190 187.792,225.660 187.391,225.000 187.220 C 224.340 187.049,222.644 186.435,221.231 185.855 C 218.292 184.648,218.508 184.701,218.246 185.125 M80.297 189.031 C 77.499 191.753,76.836 192.616,77.000 193.319 C 77.113 193.804,77.391 197.530,77.617 201.600 C 78.164 211.412,78.077 210.974,79.400 210.579 C 79.620 210.513,80.340 210.379,81.000 210.281 C 82.907 209.998,88.862 208.801,90.446 208.382 C 91.242 208.172,92.364 208.000,92.941 208.000 C 94.430 208.000,97.600 207.101,97.600 206.679 C 97.600 206.483,97.285 205.845,96.900 205.260 C 96.515 204.675,96.020 203.880,95.800 203.494 C 95.580 203.108,94.153 200.858,92.628 198.496 C 91.104 196.133,88.609 192.265,87.085 189.900 C 83.784 184.780,84.564 184.879,80.297 189.031 M337.284 188.723 C 335.981 190.195,332.445 194.182,329.426 197.583 C 323.707 204.025,323.348 204.800,326.082 204.800 C 326.483 204.800,327.123 204.962,327.505 205.159 C 327.887 205.356,329.550 205.929,331.200 206.431 C 332.850 206.933,334.371 207.492,334.580 207.672 C 334.789 207.852,335.286 208.000,335.685 208.000 C 336.084 208.000,336.723 208.166,337.105 208.369 C 337.487 208.572,339.330 209.323,341.200 210.037 C 344.802 211.413,349.337 213.350,350.495 214.006 C 351.853 214.777,352.343 214.465,352.548 212.700 C 352.656 211.765,352.937 209.360,353.172 207.355 C 353.867 201.435,353.947 201.721,350.775 198.855 C 347.849 196.210,343.744 191.376,341.754 188.230 C 340.147 185.690,339.949 185.712,337.284 188.723 M320.300 203.491 C 319.110 204.738,318.881 205.600,319.738 205.600 C 320.591 205.600,321.677 204.149,321.532 203.202 C 321.405 202.367,321.362 202.377,320.300 203.491 M100.013 205.900 C 100.030 206.313,101.032 207.600,101.336 207.600 C 101.472 207.600,101.378 207.150,101.127 206.600 C 100.704 205.670,99.984 205.218,100.013 205.900 M212.796 207.700 C 212.793 207.975,212.680 208.875,212.543 209.700 C 212.342 210.915,212.418 211.200,212.940 211.200 C 213.709 211.200,214.187 209.598,213.836 208.200 C 213.578 207.175,212.804 206.802,212.796 207.700 M313.153 215.900 C 309.297 220.245,305.538 224.490,304.801 225.333 C 303.273 227.079,303.331 227.171,306.600 228.204 C 307.700 228.552,309.545 229.188,310.700 229.618 C 311.855 230.048,313.835 230.778,315.100 231.239 C 325.966 235.203,337.252 240.859,340.335 243.887 C 341.275 244.810,343.618 246.517,343.724 246.356 C 344.760 244.779,348.136 234.369,347.730 234.003 C 347.549 233.840,345.330 232.110,342.800 230.160 C 332.898 222.525,327.881 217.735,323.418 211.654 C 321.943 209.645,320.607 208.000,320.450 208.000 C 320.293 208.000,317.009 211.555,313.153 215.900 M96.083 215.560 C 93.818 217.892,91.458 220.160,90.837 220.600 C 89.141 221.802,83.154 225.788,81.902 226.549 C 81.052 227.065,80.885 227.373,81.163 227.908 C 81.360 228.289,81.713 229.320,81.947 230.200 C 82.541 232.442,84.117 237.774,84.231 237.929 C 84.283 238.000,85.017 237.851,85.862 237.599 C 91.016 236.058,97.462 234.538,103.000 233.557 C 104.320 233.323,106.300 232.971,107.400 232.775 C 108.500 232.580,110.345 232.300,111.500 232.154 C 113.805 231.862,113.953 231.634,112.865 230.062 C 112.461 229.478,112.017 228.730,111.878 228.400 C 111.675 227.920,103.057 214.715,101.108 211.900 C 100.462 210.966,100.744 210.761,96.083 215.560 M215.035 213.106 C 214.917 213.488,214.620 215.510,214.374 217.600 C 214.128 219.690,213.775 222.570,213.589 224.000 C 213.403 225.430,213.067 228.040,212.841 229.800 C 212.615 231.560,212.254 234.350,212.039 236.000 C 211.573 239.559,211.733 239.805,214.037 239.074 C 215.007 238.767,216.610 238.289,217.600 238.011 C 218.590 237.734,219.850 237.359,220.400 237.179 C 220.950 236.998,221.985 236.734,222.700 236.593 C 224.288 236.280,224.306 235.997,222.871 233.872 C 222.249 232.952,221.191 231.030,220.518 229.600 C 217.303 222.770,217.450 221.362,221.474 220.419 C 227.280 219.058,236.316 223.137,242.287 229.813 L 244.455 232.236 246.727 231.977 C 250.827 231.510,257.032 232.264,261.184 233.733 C 263.381 234.510,263.435 234.464,262.062 232.986 C 260.907 231.742,258.328 228.467,254.083 222.852 L 251.552 219.504 247.476 219.358 C 239.409 219.067,232.799 218.285,226.000 216.815 C 223.418 216.256,217.436 214.029,216.337 213.217 C 215.329 212.472,215.234 212.464,215.035 213.106 M155.501 221.300 C 153.416 223.335,151.150 225.711,150.465 226.579 L 149.220 228.158 148.210 227.209 C 146.652 225.746,146.855 224.195,148.845 222.359 C 150.551 220.784,155.009 218.405,156.275 218.394 C 156.674 218.391,157.270 218.213,157.600 218.000 C 159.693 216.648,158.753 218.125,155.501 221.300 M300.496 225.995 C 299.764 227.167,299.892 227.422,300.800 226.600 C 301.612 225.865,301.848 225.200,301.296 225.200 C 301.129 225.200,300.769 225.558,300.496 225.995 M115.273 230.260 C 115.400 231.322,116.536 232.398,117.020 231.914 C 117.330 231.604,115.972 229.200,115.487 229.200 C 115.300 229.200,115.204 229.677,115.273 230.260 M298.096 232.900 C 292.682 238.677,284.000 248.396,284.001 248.679 C 284.001 248.856,286.206 249.708,288.901 250.574 C 291.595 251.440,294.070 252.280,294.400 252.442 C 294.730 252.604,296.080 253.128,297.400 253.607 C 299.782 254.472,300.585 254.781,302.700 255.654 C 303.305 255.903,304.160 256.249,304.600 256.423 C 314.505 260.333,326.279 268.422,328.727 273.000 C 329.324 274.117,331.554 271.233,335.066 264.800 C 335.704 263.632,336.306 264.217,328.620 258.530 C 325.771 256.421,322.351 253.797,321.020 252.697 C 319.689 251.598,317.700 249.958,316.600 249.054 C 310.678 244.188,303.938 236.800,301.746 232.772 C 300.424 230.343,300.495 230.340,298.096 232.900 M115.200 235.381 C 115.200 235.946,109.089 242.371,106.521 244.506 C 104.091 246.525,95.376 252.163,91.895 253.968 C 90.575 254.652,90.581 254.564,91.723 256.800 C 94.137 261.525,96.156 265.416,96.273 265.567 C 96.343 265.659,96.806 265.542,97.301 265.308 C 97.795 265.073,98.830 264.664,99.600 264.400 C 100.370 264.136,101.360 263.782,101.800 263.615 C 106.642 261.774,120.403 258.668,128.196 257.659 C 129.525 257.486,130.231 257.195,130.308 256.787 C 130.409 256.261,128.308 252.578,127.577 252.000 C 127.438 251.890,124.774 247.975,121.657 243.300 C 116.362 235.357,115.200 233.932,115.200 235.381 M274.986 245.978 C 276.328 248.149,268.159 250.400,258.939 250.400 C 253.575 250.400,253.845 250.248,254.836 252.700 C 255.726 254.901,255.948 255.483,256.400 256.800 C 256.664 257.570,257.037 258.560,257.229 259.000 C 257.503 259.629,259.012 264.318,260.223 268.300 C 260.531 269.312,261.286 268.633,269.115 260.300 C 280.880 247.777,280.095 249.107,276.956 247.023 C 275.721 246.204,274.835 245.733,274.986 245.978 M281.259 247.203 C 279.744 248.652,279.718 248.800,280.977 248.800 C 281.949 248.800,283.200 247.511,283.200 246.511 C 283.200 245.699,282.615 245.908,281.259 247.203 M272.081 261.226 C 267.176 266.500,263.258 270.970,263.375 271.159 C 263.492 271.349,264.536 271.804,265.694 272.170 C 267.611 272.776,270.967 273.984,273.000 274.799 C 273.440 274.975,274.430 275.336,275.200 275.600 C 275.970 275.864,277.005 276.243,277.500 276.440 C 277.995 276.638,278.805 276.962,279.300 277.159 C 280.339 277.574,282.159 278.349,285.000 279.587 C 291.720 282.515,297.963 286.290,301.692 289.680 C 303.889 291.677,307.995 296.769,307.998 297.500 C 308.005 299.076,311.087 296.516,316.729 290.245 C 319.603 287.051,319.673 287.331,315.254 284.342 C 300.169 274.136,285.696 260.421,282.077 252.900 C 281.243 251.167,282.101 250.452,272.081 261.226 M133.430 256.752 C 133.048 257.369,134.230 259.200,135.009 259.200 C 135.852 259.200,135.741 258.609,134.664 257.357 C 134.007 256.593,133.639 256.413,133.430 256.752 M129.282 265.560 C 127.237 267.672,125.054 269.760,124.430 270.200 C 120.400 273.043,115.994 276.000,115.787 276.000 C 115.654 276.000,114.759 276.540,113.800 277.200 C 112.841 277.860,111.975 278.400,111.876 278.400 C 111.498 278.400,107.159 281.146,107.148 281.392 C 107.138 281.645,108.583 283.518,110.998 286.380 C 116.472 292.870,125.497 301.650,131.000 305.839 C 140.731 313.247,147.274 317.421,155.000 321.153 C 162.145 324.604,164.835 325.814,168.000 327.001 C 170.900 328.088,179.750 330.844,182.800 331.609 C 186.623 332.568,186.760 332.534,187.590 330.400 C 188.431 328.236,188.737 327.954,189.634 328.514 C 190.055 328.777,190.400 329.309,190.400 329.696 C 190.400 330.438,190.999 330.650,191.375 330.040 C 191.559 329.743,189.939 328.134,188.200 326.885 C 185.005 324.590,167.481 307.559,164.099 303.461 C 163.164 302.327,161.851 300.770,161.182 300.000 C 159.307 297.843,154.794 291.806,151.958 287.662 C 150.551 285.607,147.276 280.837,144.680 277.062 C 142.084 273.288,138.664 268.269,137.080 265.910 C 133.616 260.749,133.926 260.763,129.282 265.560 M258.900 271.206 C 257.342 272.623,257.306 272.800,258.577 272.800 C 259.549 272.800,260.800 271.511,260.800 270.511 C 260.800 269.735,260.328 269.907,258.900 271.206 M253.419 281.100 C 232.111 303.629,227.528 308.059,217.191 316.125 C 211.258 320.753,199.807 328.489,193.400 332.196 L 191.400 333.353 194.200 333.831 C 203.583 335.430,221.697 335.984,229.101 334.899 C 230.917 334.633,233.977 334.219,235.901 333.978 C 237.826 333.738,240.120 333.387,241.000 333.199 C 246.035 332.120,249.944 331.204,251.200 330.808 C 251.750 330.635,253.010 330.266,254.000 329.989 C 257.774 328.932,263.055 327.078,263.468 326.665 C 263.614 326.519,263.968 326.400,264.255 326.400 C 264.542 326.400,265.817 325.929,267.088 325.354 C 268.360 324.779,270.390 323.862,271.600 323.316 C 276.163 321.258,279.104 319.773,282.400 317.865 C 284.270 316.783,286.430 315.539,287.200 315.101 C 287.970 314.663,289.230 313.813,290.000 313.211 C 290.770 312.610,292.435 311.436,293.700 310.602 C 296.548 308.725,296.540 308.572,293.493 306.600 C 280.188 297.991,266.454 285.354,260.998 276.701 C 259.482 274.297,260.305 273.819,253.419 281.100 " stroke="none" fill="#df7169" fill-rule="evenodd"></path><path id="path1" d="M101.200 111.410 C 100.650 111.705,99.210 112.386,98.000 112.923 C 90.634 116.190,82.166 125.764,75.467 138.400 C 75.058 139.170,74.441 140.245,74.095 140.788 C 72.694 142.988,67.600 153.417,67.600 154.084 C 67.600 154.478,67.960 155.160,68.400 155.600 C 69.232 156.432,69.478 157.600,68.823 157.600 C 68.615 157.600,68.126 157.060,67.736 156.400 C 66.937 155.046,66.552 154.939,65.599 155.801 C 65.233 156.132,63.525 156.581,61.802 156.800 C 58.505 157.218,57.412 157.600,59.514 157.600 C 61.135 157.600,64.758 156.871,65.879 156.320 C 66.636 155.947,66.903 156.061,67.814 157.144 C 68.395 157.835,69.174 158.400,69.543 158.400 C 69.973 158.400,71.440 160.355,73.608 163.816 C 76.571 168.547,80.174 173.605,78.298 170.400 C 76.732 167.723,74.133 163.569,72.745 161.522 C 70.672 158.466,70.728 158.248,74.000 156.600 C 77.375 154.900,83.200 151.191,83.200 150.741 C 83.200 150.563,81.715 151.382,79.900 152.561 C 76.706 154.635,71.142 157.613,70.510 157.587 C 70.339 157.580,69.702 156.755,69.093 155.752 L 67.987 153.929 70.076 149.665 C 73.299 143.086,78.563 133.802,81.792 128.998 C 87.564 120.415,94.124 114.709,101.300 112.030 C 101.905 111.805,102.400 111.435,102.400 111.210 C 102.400 110.984,102.355 110.816,102.300 110.837 C 102.245 110.857,101.750 111.115,101.200 111.410 M302.692 130.083 C 297.807 131.380,301.132 139.411,314.098 157.630 C 321.806 168.461,330.090 177.396,336.160 181.426 C 337.469 182.295,338.274 183.087,338.118 183.351 C 337.898 183.721,329.868 192.945,329.194 193.600 C 329.081 193.710,327.641 195.326,325.994 197.190 C 322.216 201.469,322.093 201.600,321.884 201.600 C 321.789 201.600,321.307 200.295,320.813 198.700 C 318.592 191.532,316.495 185.482,314.854 181.500 C 314.604 180.895,314.238 179.995,314.041 179.500 C 308.437 165.460,301.582 157.287,292.400 153.700 C 287.774 151.892,281.713 151.893,280.745 153.702 C 277.816 159.177,302.286 194.430,315.017 203.076 C 316.345 203.978,317.639 204.965,317.891 205.269 C 318.321 205.787,303.222 223.522,302.003 223.931 C 301.544 224.085,301.315 223.533,299.629 218.200 C 298.933 216.000,298.210 213.840,298.022 213.400 C 297.834 212.960,297.464 211.970,297.200 211.200 C 296.648 209.591,296.292 208.650,295.654 207.100 C 295.404 206.495,295.020 205.550,294.800 205.000 C 294.580 204.450,294.236 203.595,294.036 203.100 C 286.606 184.747,276.439 175.055,264.572 175.013 C 257.078 174.987,257.382 178.742,265.933 191.800 C 276.468 207.888,287.492 220.356,296.097 225.916 C 298.590 227.527,298.757 227.851,297.700 229.031 C 292.536 234.800,289.888 237.740,288.360 239.400 C 287.347 240.500,285.835 242.171,285.000 243.114 C 282.986 245.387,282.990 245.392,280.946 239.187 C 279.970 236.224,279.015 233.440,278.824 233.000 C 278.633 232.560,277.888 230.670,277.170 228.800 C 269.926 209.953,263.378 201.786,251.800 197.159 C 248.811 195.965,242.909 196.048,241.300 197.307 C 238.873 199.206,243.948 209.490,253.586 222.200 C 257.801 227.758,260.901 231.763,261.173 232.000 C 261.299 232.110,262.688 233.730,264.261 235.600 C 268.230 240.319,272.200 243.899,276.900 246.997 C 280.105 249.110,280.893 247.764,269.115 260.300 C 261.286 268.633,260.531 269.312,260.223 268.300 C 259.012 264.318,257.503 259.629,257.229 259.000 C 257.037 258.560,256.664 257.570,256.400 256.800 C 255.818 255.107,255.229 253.640,254.753 252.705 C 254.559 252.323,254.400 251.826,254.400 251.601 C 254.400 250.429,248.158 237.797,245.992 234.589 C 241.531 227.978,235.415 222.956,229.800 221.294 C 221.202 218.749,216.744 220.617,218.847 225.881 C 219.877 228.460,221.817 232.313,222.871 233.872 C 223.492 234.792,224.000 235.657,224.000 235.794 C 224.000 236.076,226.797 240.273,228.402 242.400 C 228.984 243.170,230.254 244.880,231.226 246.200 C 240.098 258.247,249.118 267.717,255.445 271.628 C 257.559 272.934,258.544 271.586,245.234 285.600 C 228.094 303.647,223.791 307.695,213.800 315.173 C 208.456 319.173,197.534 326.554,195.400 327.607 C 194.740 327.933,193.851 328.515,193.425 328.900 C 192.998 329.285,192.515 329.600,192.351 329.600 C 192.187 329.600,191.096 330.179,189.927 330.886 C 188.757 331.593,187.746 332.202,187.681 332.238 C 187.615 332.275,187.679 332.777,187.824 333.353 C 188.140 334.610,189.046 334.700,190.888 333.656 C 198.759 329.192,210.308 321.494,217.191 316.125 C 227.528 308.059,232.111 303.629,253.419 281.100 C 260.305 273.819,259.482 274.297,260.998 276.701 C 266.391 285.254,278.241 296.245,292.600 306.014 C 294.360 307.212,295.890 308.285,296.000 308.399 C 296.927 309.364,303.556 312.910,306.063 313.783 C 311.096 315.536,312.968 310.321,310.170 302.338 C 309.604 300.722,309.043 299.085,308.924 298.700 C 308.804 298.315,308.548 298.000,308.353 298.000 C 308.159 298.000,307.999 297.775,307.998 297.500 C 307.995 296.769,303.889 291.677,301.692 289.680 C 297.963 286.290,291.720 282.515,285.000 279.587 C 282.159 278.349,280.339 277.574,279.300 277.159 C 278.805 276.962,277.995 276.638,277.500 276.440 C 277.005 276.243,275.970 275.864,275.200 275.600 C 274.430 275.336,273.440 274.975,273.000 274.799 C 270.967 273.984,267.611 272.776,265.694 272.170 C 264.536 271.804,263.491 271.348,263.374 271.157 C 263.189 270.859,280.453 251.986,281.179 251.693 C 281.325 251.633,281.728 252.173,282.074 252.893 C 285.656 260.337,300.204 274.170,314.800 284.010 C 316.230 284.974,317.878 286.193,318.463 286.720 C 319.047 287.247,319.677 287.678,319.863 287.678 C 320.048 287.679,321.190 288.254,322.400 288.958 C 327.766 292.077,331.240 292.931,332.686 291.486 C 334.994 289.177,332.687 278.020,328.879 273.080 C 323.790 266.476,314.014 259.979,302.500 255.546 C 302.005 255.356,301.195 255.038,300.700 254.839 C 300.205 254.640,298.720 254.086,297.400 253.607 C 296.080 253.128,294.730 252.604,294.400 252.442 C 294.070 252.280,291.595 251.440,288.901 250.574 C 286.206 249.708,284.001 248.856,284.001 248.679 C 284.000 248.396,292.682 238.677,298.096 232.900 C 300.495 230.340,300.424 230.343,301.746 232.772 C 303.938 236.800,310.678 244.188,316.600 249.054 C 317.700 249.958,319.689 251.598,321.020 252.697 C 322.351 253.797,325.771 256.423,328.620 258.532 C 331.469 260.642,334.250 262.708,334.800 263.125 C 338.971 266.281,347.149 270.377,349.318 270.394 C 352.671 270.421,352.993 262.132,349.893 255.600 C 349.016 253.754,346.061 249.397,345.026 248.424 C 344.462 247.894,344.000 247.261,344.000 247.017 C 344.000 246.772,343.505 246.274,342.900 245.909 C 342.295 245.544,341.350 244.823,340.800 244.306 C 337.615 241.312,329.274 236.821,320.100 233.159 C 319.605 232.962,318.795 232.638,318.300 232.439 C 317.805 232.240,316.365 231.700,315.100 231.239 C 313.835 230.778,311.855 230.048,310.700 229.618 C 309.545 229.188,307.700 228.552,306.600 228.204 C 303.331 227.171,303.273 227.079,304.801 225.333 C 312.039 217.060,320.220 208.000,320.450 208.000 C 320.607 208.000,321.954 209.665,323.443 211.700 C 326.693 216.143,332.346 221.870,337.800 226.247 C 345.937 232.778,355.009 239.347,359.053 241.637 C 359.904 242.119,361.378 242.950,362.328 243.485 C 369.866 247.725,372.800 247.131,372.800 241.365 C 372.800 231.833,366.113 222.466,354.753 216.086 C 352.418 214.775,351.875 214.499,350.400 213.877 C 349.630 213.552,348.010 212.848,346.800 212.312 C 345.590 211.776,343.070 210.752,341.200 210.037 C 339.330 209.323,337.487 208.572,337.105 208.369 C 336.723 208.166,336.084 208.000,335.685 208.000 C 335.286 208.000,334.789 207.852,334.580 207.672 C 334.371 207.492,332.850 206.933,331.200 206.431 C 329.550 205.929,327.887 205.356,327.505 205.159 C 327.123 204.962,326.483 204.800,326.082 204.800 C 323.348 204.800,323.707 204.025,329.426 197.583 C 332.445 194.182,335.981 190.195,337.284 188.723 C 339.949 185.712,340.147 185.690,341.754 188.230 C 349.053 199.768,379.024 222.829,388.466 224.173 C 391.345 224.583,392.000 223.659,392.000 219.191 C 392.000 207.736,383.573 198.014,367.600 191.039 C 362.561 188.839,361.574 188.435,358.200 187.198 C 356.880 186.713,355.260 186.077,354.600 185.784 C 353.940 185.491,351.780 184.770,349.800 184.182 C 344.922 182.733,343.907 182.359,343.169 181.734 C 342.293 180.994,342.030 181.054,341.129 182.200 C 340.286 183.271,339.200 183.538,339.200 182.675 C 339.200 182.386,339.740 181.632,340.400 181.000 C 341.703 179.751,341.806 179.292,341.201 177.428 C 337.740 166.782,336.709 163.671,336.420 163.000 C 336.230 162.560,335.773 161.390,335.404 160.400 C 335.036 159.410,334.500 158.060,334.215 157.400 C 333.929 156.740,333.389 155.480,333.014 154.600 C 325.849 137.749,312.987 127.350,302.692 130.083 M54.000 158.017 C 53.230 158.201,51.907 158.464,51.059 158.602 C 50.212 158.739,49.626 158.959,49.757 159.090 C 49.999 159.333,54.808 158.617,57.000 158.013 L 58.200 157.682 56.800 157.682 C 56.030 157.682,54.770 157.833,54.000 158.017 M43.730 160.191 C 24.733 164.930,15.128 171.881,11.851 183.262 C 9.440 191.637,13.574 193.193,25.000 188.211 C 25.660 187.923,27.550 187.104,29.200 186.391 C 32.393 185.011,37.700 182.358,43.098 179.442 C 54.184 173.454,60.238 169.270,65.389 164.035 C 68.617 160.755,68.483 160.805,69.502 162.500 C 69.932 163.215,71.778 166.140,73.605 169.000 C 75.431 171.860,77.200 174.733,77.535 175.385 C 77.869 176.037,78.210 176.370,78.292 176.125 C 78.373 175.881,77.756 174.590,76.920 173.257 C 76.084 171.924,73.983 168.573,72.251 165.810 C 68.304 159.513,68.952 159.678,64.658 163.876 C 62.646 165.843,60.190 168.084,59.200 168.858 C 57.083 170.511,51.336 174.400,51.010 174.400 C 50.886 174.400,50.113 174.822,49.292 175.337 C 42.219 179.779,27.248 187.054,20.826 189.170 C 13.120 191.710,11.077 190.791,11.964 185.184 C 13.740 173.953,24.065 165.793,42.362 161.157 C 49.459 159.359,49.773 159.261,48.400 159.269 C 47.850 159.273,45.749 159.687,43.730 160.191 M74.600 181.871 C 73.060 182.165,71.080 182.578,70.200 182.787 L 68.600 183.168 70.400 183.006 C 73.146 182.760,77.257 182.076,77.509 181.824 C 77.989 181.344,77.294 181.355,74.600 181.871 M65.400 183.600 C 64.718 183.893,64.777 183.944,65.800 183.944 C 66.460 183.944,67.360 183.789,67.800 183.600 C 68.482 183.307,68.423 183.256,67.400 183.256 C 66.740 183.256,65.840 183.411,65.400 183.600 M59.600 184.823 C 46.862 188.028,40.556 190.935,34.812 196.253 C 31.019 199.764,27.140 206.370,27.236 209.153 C 27.268 210.067,27.320 210.022,27.646 208.800 C 30.707 197.335,40.542 190.083,59.200 185.533 C 61.950 184.863,64.275 184.244,64.367 184.157 C 64.755 183.791,62.387 184.122,59.600 184.823 M73.600 194.417 C 71.137 196.300,66.213 199.385,61.800 201.810 C 60.700 202.414,58.810 203.478,57.600 204.174 C 51.490 207.687,39.378 213.135,34.800 214.429 C 33.810 214.709,33.282 215.004,33.626 215.084 C 37.165 215.911,67.446 200.360,75.800 193.425 C 77.988 191.609,76.246 192.394,73.600 194.417 M320.970 204.833 C 320.194 205.691,319.200 205.853,319.200 205.122 C 319.200 204.859,319.695 204.125,320.300 203.491 C 321.623 202.104,322.269 203.398,320.970 204.833 M26.870 212.100 C 26.762 215.044,28.715 216.504,31.637 215.664 C 32.943 215.289,32.906 215.271,30.762 215.236 C 28.051 215.192,27.321 214.548,27.098 211.999 L 26.940 210.200 26.870 212.100 M74.797 211.591 C 55.375 216.898,44.518 226.014,43.745 237.664 C 43.344 243.693,46.114 244.200,56.581 240.016 C 62.330 237.717,79.247 228.826,80.800 227.286 C 81.429 226.662,76.160 229.384,73.554 231.029 C 67.706 234.720,53.356 241.052,48.710 241.990 C 39.027 243.946,44.652 227.658,56.400 219.721 C 60.373 217.037,72.686 212.062,75.552 211.982 C 75.908 211.972,76.740 211.717,77.400 211.414 C 79.045 210.661,77.921 210.737,74.797 211.591 M301.600 225.538 C 301.600 225.724,301.240 226.202,300.800 226.600 C 299.892 227.422,299.764 227.167,300.496 225.995 C 301.005 225.181,301.600 224.934,301.600 225.538 M80.314 239.200 C 69.478 243.208,62.048 250.050,59.032 258.800 C 58.230 261.127,58.193 265.850,58.971 266.629 C 60.145 267.802,65.837 267.090,70.200 265.226 C 77.691 262.024,90.799 255.314,90.800 254.682 C 90.800 254.507,89.405 255.114,87.700 256.032 C 85.995 256.949,83.340 258.379,81.800 259.210 C 66.899 267.242,58.783 268.817,58.810 263.671 C 58.860 254.051,67.175 244.876,80.491 239.748 C 82.531 238.962,84.275 238.247,84.367 238.160 C 84.815 237.730,83.094 238.172,80.314 239.200 M283.200 246.511 C 283.200 247.511,281.949 248.800,280.977 248.800 C 279.718 248.800,279.744 248.652,281.259 247.203 C 282.615 245.908,283.200 245.699,283.200 246.511 M92.806 267.053 C 89.149 269.088,84.716 272.510,82.874 274.720 C 80.903 277.084,78.400 280.990,78.400 281.701 C 78.400 281.997,78.250 282.411,78.067 282.620 C 75.800 285.211,76.500 292.008,79.101 292.661 C 81.948 293.376,103.123 284.820,106.580 281.558 C 107.307 280.873,106.543 281.224,98.363 285.332 C 81.945 293.579,76.738 294.139,77.346 287.591 C 78.071 279.788,84.805 271.520,94.100 267.020 C 95.365 266.407,96.400 265.837,96.400 265.753 C 96.400 265.302,95.119 265.766,92.806 267.053 M260.800 270.511 C 260.800 271.511,259.549 272.800,258.577 272.800 C 257.306 272.800,257.342 272.623,258.900 271.206 C 260.328 269.907,260.800 269.735,260.800 270.511 " stroke="none" fill="#84ac94" fill-rule="evenodd"></path><path id="path2" d="M104.200 110.980 C 95.493 113.566,88.256 119.385,81.792 128.998 C 78.563 133.802,73.299 143.086,70.076 149.665 L 67.987 153.929 69.093 155.752 C 69.702 156.755,70.339 157.580,70.510 157.587 C 71.143 157.613,76.708 154.633,79.914 152.552 C 81.736 151.368,83.331 150.400,83.458 150.400 C 84.892 150.400,104.105 131.596,109.616 124.800 C 110.597 123.590,111.499 122.510,111.619 122.400 C 114.592 119.689,116.908 112.914,115.178 111.988 C 112.330 110.464,107.447 110.015,104.200 110.980 M119.600 136.483 C 116.127 137.478,110.779 140.002,109.600 141.201 C 109.490 141.313,108.712 141.918,107.870 142.545 C 105.933 143.990,104.204 145.719,102.188 148.226 C 101.315 149.311,100.494 150.290,100.365 150.400 C 99.963 150.742,94.400 159.159,94.400 159.425 C 94.400 159.563,94.055 160.161,93.633 160.754 C 92.541 162.287,90.685 165.706,87.216 172.570 C 83.668 179.593,83.782 179.513,81.928 176.304 C 81.133 174.927,79.558 172.553,78.429 171.029 C 77.300 169.505,74.992 166.040,73.300 163.329 C 71.334 160.178,69.980 158.400,69.548 158.400 C 69.176 158.400,68.389 157.827,67.799 157.126 C 66.937 156.101,66.596 155.935,66.053 156.274 C 65.682 156.506,64.033 156.909,62.389 157.170 C 60.745 157.430,58.500 157.808,57.400 158.010 C 56.300 158.211,54.140 158.588,52.600 158.847 C 28.357 162.925,14.014 172.221,11.964 185.184 C 11.077 190.791,13.120 191.710,20.826 189.170 C 27.248 187.054,42.219 179.779,49.292 175.337 C 50.113 174.822,50.886 174.400,51.010 174.400 C 51.336 174.400,57.083 170.511,59.200 168.858 C 60.190 168.084,62.646 165.843,64.658 163.876 C 68.753 159.873,68.592 159.888,70.656 163.309 C 71.483 164.679,73.271 167.510,74.630 169.600 C 75.989 171.690,77.729 174.585,78.497 176.033 C 79.265 177.481,80.205 179.141,80.586 179.723 C 81.528 181.160,81.016 181.353,72.400 182.800 C 49.423 186.659,37.269 192.091,31.240 201.196 C 27.671 206.586,26.108 212.888,27.931 214.538 C 30.420 216.790,44.291 211.827,58.732 203.517 C 60.564 202.463,62.127 201.600,62.205 201.600 C 63.667 201.600,76.665 192.496,80.622 188.700 C 84.556 184.927,83.788 184.785,87.085 189.900 C 88.609 192.265,91.104 196.133,92.628 198.496 C 94.153 200.858,95.580 203.108,95.800 203.494 C 96.020 203.880,96.515 204.675,96.900 205.260 C 97.285 205.845,97.600 206.483,97.600 206.679 C 97.600 207.101,94.430 208.000,92.941 208.000 C 92.364 208.000,91.242 208.172,90.446 208.382 C 88.891 208.793,82.966 209.987,81.000 210.285 C 80.340 210.385,79.252 210.713,78.582 211.014 C 77.912 211.314,76.526 211.748,75.502 211.977 C 59.149 215.642,47.719 224.116,44.614 234.877 C 41.895 244.297,46.683 244.510,64.403 235.757 C 68.520 233.724,73.038 231.364,74.444 230.512 C 75.850 229.660,78.530 228.178,80.400 227.218 C 86.705 223.982,90.235 221.364,96.171 215.518 C 100.135 211.614,100.592 211.277,101.075 211.906 C 102.048 213.174,111.621 227.790,111.878 228.400 C 112.017 228.730,112.461 229.478,112.865 230.062 C 113.944 231.620,113.800 231.875,111.700 232.123 C 110.655 232.246,108.630 232.555,107.200 232.808 C 105.770 233.061,103.790 233.408,102.800 233.580 C 100.290 234.013,94.876 235.136,93.200 235.571 C 87.423 237.069,87.434 237.066,81.400 239.409 C 72.964 242.685,68.456 245.597,64.311 250.450 C 59.960 255.542,57.343 264.086,59.480 266.223 C 61.322 268.065,71.308 264.958,81.400 259.403 C 82.720 258.677,86.050 256.920,88.800 255.498 C 96.032 251.761,102.973 247.455,106.521 244.506 C 109.089 242.371,115.200 235.946,115.200 235.381 C 115.200 233.932,116.362 235.357,121.657 243.300 C 124.774 247.975,127.438 251.890,127.577 252.000 C 128.308 252.578,130.409 256.261,130.308 256.787 C 130.231 257.195,129.525 257.486,128.196 257.659 C 120.348 258.676,106.221 261.871,101.800 263.629 C 101.360 263.804,100.280 264.177,99.400 264.459 C 98.520 264.740,97.350 265.247,96.800 265.585 C 96.250 265.923,94.900 266.642,93.800 267.183 C 84.694 271.656,78.063 279.882,77.346 287.591 C 76.892 292.481,78.746 293.161,86.064 290.789 C 90.753 289.269,110.745 279.388,114.462 276.753 C 115.046 276.339,115.639 276.000,115.780 276.000 C 116.090 276.000,121.573 272.335,123.800 270.639 C 124.680 269.969,127.189 267.661,129.375 265.510 C 134.210 260.754,133.598 260.722,137.080 265.910 C 138.664 268.269,142.084 273.288,144.680 277.062 C 147.276 280.837,150.551 285.607,151.958 287.662 C 154.794 291.806,159.307 297.843,161.182 300.000 C 161.851 300.770,163.164 302.327,164.099 303.461 C 167.481 307.559,185.005 324.590,188.200 326.885 C 188.420 327.043,189.254 327.718,190.053 328.386 C 191.651 329.722,192.248 329.841,193.307 329.038 C 194.211 328.352,193.894 327.546,192.365 326.643 C 191.699 326.250,190.575 325.359,189.866 324.664 C 189.158 323.969,187.510 322.500,186.204 321.400 C 183.563 319.176,169.959 305.727,167.180 302.594 C 164.720 299.821,161.914 296.451,161.223 295.443 C 160.906 294.979,160.537 294.510,160.404 294.400 C 160.271 294.290,159.729 293.570,159.200 292.800 C 158.671 292.030,158.128 291.310,157.993 291.200 C 157.739 290.993,154.775 286.679,146.863 275.000 C 144.329 271.260,142.149 268.110,142.019 268.000 C 141.351 267.437,136.801 260.389,136.810 259.932 C 136.816 259.639,138.121 258.776,139.710 258.013 C 142.679 256.587,148.626 253.072,149.890 251.994 C 150.280 251.661,151.410 250.761,152.400 249.994 C 153.390 249.228,154.290 248.508,154.400 248.394 C 154.510 248.281,156.127 246.841,157.993 245.194 C 161.556 242.051,170.532 233.177,173.600 229.766 C 181.487 220.996,184.086 216.294,182.023 214.526 C 180.245 213.005,173.643 212.214,170.560 213.153 C 169.922 213.348,168.590 213.747,167.600 214.040 C 162.401 215.579,156.149 220.289,151.195 226.400 C 150.214 227.610,149.303 228.690,149.171 228.800 C 148.772 229.132,143.200 237.554,143.200 237.825 C 143.200 237.963,142.855 238.561,142.433 239.154 C 142.011 239.747,141.079 241.305,140.364 242.616 C 139.648 243.927,138.646 245.720,138.139 246.600 C 137.631 247.480,136.482 249.680,135.586 251.490 C 134.690 253.299,133.815 254.867,133.643 254.974 C 133.303 255.183,131.915 253.235,123.734 241.064 C 117.812 232.253,117.882 232.417,119.700 231.639 C 124.535 229.570,132.720 224.480,135.200 222.000 C 135.310 221.890,136.930 220.458,138.800 218.819 C 143.552 214.652,156.314 201.922,157.997 199.670 C 158.766 198.641,159.500 197.710,159.627 197.600 C 163.249 194.486,165.213 187.746,162.765 186.834 C 162.124 186.595,161.060 186.198,160.399 185.951 C 154.709 183.824,143.590 188.049,136.584 195.000 C 133.421 198.138,124.000 210.963,124.000 212.131 C 124.000 212.234,123.325 213.465,122.500 214.867 C 121.675 216.269,120.686 217.952,120.301 218.608 C 119.917 219.264,118.747 221.551,117.701 223.691 C 116.656 225.831,115.598 227.586,115.351 227.591 C 115.104 227.596,112.749 224.315,110.117 220.300 C 102.348 208.447,102.102 208.000,103.350 208.000 C 105.130 208.000,116.507 201.137,120.200 197.835 C 121.080 197.049,122.642 195.729,123.671 194.902 C 124.699 194.076,129.559 189.344,134.471 184.387 C 152.355 166.335,153.889 161.595,141.840 161.602 C 136.496 161.606,129.038 164.117,126.400 166.801 C 126.290 166.913,125.481 167.541,124.603 168.197 C 120.020 171.618,112.992 180.867,107.732 190.400 C 107.065 191.610,106.046 193.410,105.469 194.400 C 104.891 195.390,103.505 198.036,102.389 200.280 C 100.587 203.900,99.200 205.345,99.200 203.602 C 99.200 203.312,96.624 199.235,90.594 189.984 C 88.027 186.044,86.645 183.607,86.871 183.416 C 86.942 183.356,88.080 182.775,89.400 182.126 C 97.774 178.007,100.902 175.504,114.200 162.279 C 134.415 142.177,136.917 135.904,124.667 136.041 C 122.650 136.063,120.370 136.262,119.600 136.483 M85.043 181.100 C 85.661 181.914,85.771 183.200,85.223 183.200 C 84.744 183.200,83.600 181.587,83.600 180.911 C 83.600 180.175,84.423 180.283,85.043 181.100 M101.127 206.600 C 101.653 207.755,101.333 207.923,100.557 206.900 C 99.941 206.089,99.858 205.600,100.336 205.600 C 100.520 205.600,100.877 206.050,101.127 206.600 M116.553 230.428 C 117.354 231.785,117.133 232.404,116.081 231.746 C 115.376 231.304,114.885 229.200,115.487 229.200 C 115.674 229.200,116.154 229.752,116.553 230.428 M135.600 258.822 C 135.600 259.574,134.404 259.177,133.775 258.218 C 132.795 256.723,133.518 256.024,134.664 257.357 C 135.179 257.955,135.600 258.615,135.600 258.822 " stroke="none" fill="#464636" fill-rule="evenodd"></path><path id="path3" d="M0.000 200.000 L 0.000 400.000 200.000 400.000 L 400.000 400.000 400.000 200.000 L 400.000 0.000 200.000 0.000 L 0.000 0.000 0.000 200.000 M226.173 50.804 C 228.168 51.026,231.510 51.399,233.600 51.633 C 239.414 52.285,246.384 53.681,251.800 55.281 C 256.386 56.635,264.071 59.236,266.000 60.086 C 266.990 60.523,268.160 61.026,268.600 61.204 C 306.550 76.597,338.438 113.998,349.252 155.800 C 350.710 161.434,351.039 163.042,352.384 171.100 C 352.921 174.318,353.616 180.595,353.716 183.128 C 353.811 185.532,353.959 185.667,358.200 187.207 C 366.132 190.086,374.443 194.046,378.600 196.925 C 386.981 202.730,392.000 211.070,392.000 219.191 C 392.000 223.659,391.345 224.583,388.466 224.173 C 383.578 223.477,372.194 216.324,358.458 205.319 C 353.567 201.400,353.601 201.408,353.597 204.100 C 353.595 205.255,353.425 207.280,353.219 208.600 C 352.335 214.256,352.421 214.778,354.417 215.898 C 366.135 222.479,372.800 231.711,372.800 241.365 C 372.800 247.131,369.866 247.725,362.328 243.485 C 361.378 242.950,359.904 242.119,359.053 241.637 C 357.056 240.506,351.816 236.997,349.942 235.536 C 348.112 234.110,348.226 234.082,347.606 236.100 C 346.126 240.924,344.639 245.095,344.265 245.468 C 343.681 246.053,344.057 247.514,345.026 248.424 C 348.934 252.095,352.000 259.420,352.000 265.084 C 352.000 271.852,349.239 271.992,338.907 265.748 C 335.421 263.642,335.870 263.647,334.698 265.700 C 334.165 266.635,332.800 268.897,331.666 270.727 L 329.603 274.054 331.148 277.327 C 333.726 282.790,334.476 289.696,332.686 291.486 C 331.205 292.967,327.576 292.036,322.161 288.787 L 319.723 287.324 314.241 293.050 C 309.710 297.784,308.825 298.900,309.139 299.488 C 311.263 303.475,311.961 311.324,310.371 313.346 C 308.907 315.207,305.489 314.251,298.670 310.076 C 297.237 309.198,296.236 308.808,296.070 309.060 C 295.776 309.508,286.893 315.508,284.610 316.801 C 283.834 317.241,282.525 317.987,281.700 318.460 C 279.762 319.572,273.965 322.466,271.400 323.603 C 270.300 324.091,268.450 324.919,267.288 325.445 C 266.127 325.970,264.942 326.400,264.655 326.400 C 264.368 326.400,264.014 326.519,263.868 326.665 C 263.353 327.181,255.950 329.717,251.600 330.869 C 242.407 333.303,237.308 334.170,226.000 335.221 C 220.383 335.743,204.296 335.502,199.800 334.828 C 191.117 333.527,190.747 333.493,190.292 333.948 C 189.459 334.781,187.275 334.487,186.597 333.451 C 186.136 332.748,185.225 332.324,183.087 331.816 C 181.499 331.439,179.030 330.758,177.600 330.302 C 170.546 328.054,167.722 327.124,166.900 326.779 C 166.405 326.570,165.595 326.244,165.100 326.053 C 156.749 322.829,135.804 310.645,132.000 306.798 C 131.890 306.686,131.080 306.062,130.200 305.410 C 128.677 304.282,121.094 297.520,119.400 295.780 C 115.307 291.575,107.946 283.229,106.956 281.670 C 106.911 281.599,104.292 282.889,101.137 284.537 C 87.691 291.560,79.666 294.009,77.428 291.771 C 76.339 290.682,76.801 284.067,78.067 282.620 C 78.250 282.411,78.400 281.997,78.400 281.701 C 78.400 280.990,80.903 277.084,82.874 274.720 C 84.784 272.429,89.288 268.988,93.027 266.964 C 94.552 266.138,95.867 265.412,95.949 265.349 C 96.030 265.287,95.645 264.463,95.092 263.518 C 94.539 262.573,93.339 260.315,92.425 258.500 C 91.510 256.685,90.682 255.200,90.583 255.200 C 90.484 255.200,88.378 256.290,85.902 257.623 C 80.644 260.453,75.461 262.962,70.200 265.224 C 65.867 267.086,60.145 267.802,58.971 266.629 C 58.193 265.850,58.230 261.127,59.032 258.800 C 62.072 249.982,69.583 243.106,80.472 239.174 C 84.465 237.732,84.190 238.057,83.385 235.738 C 83.014 234.672,82.382 232.476,81.979 230.857 C 81.577 229.238,81.152 227.819,81.036 227.703 C 80.920 227.587,78.724 228.688,76.155 230.149 C 58.426 240.235,46.288 244.648,44.125 241.794 C 42.966 240.266,43.686 234.901,45.564 231.064 C 50.246 221.500,58.506 216.108,75.746 211.362 L 78.092 210.716 77.862 208.858 C 77.735 207.836,77.527 204.570,77.400 201.600 C 77.272 198.630,77.072 195.423,76.955 194.474 L 76.743 192.748 75.350 193.811 C 66.975 200.199,47.941 210.428,37.956 213.907 C 28.693 217.135,26.294 216.389,26.974 210.493 C 28.100 200.731,36.952 191.948,50.000 187.644 C 55.405 185.862,55.780 185.756,60.000 184.807 C 66.594 183.324,66.941 183.251,69.800 182.758 C 71.340 182.492,73.680 182.070,75.000 181.820 L 77.400 181.365 77.685 178.794 C 78.019 175.791,78.163 176.138,73.605 169.000 C 71.778 166.140,69.932 163.215,69.502 162.500 C 68.483 160.805,68.617 160.755,65.389 164.035 C 60.238 169.270,54.184 173.454,43.098 179.442 C 37.700 182.358,32.393 185.011,29.200 186.391 C 27.550 187.104,25.660 187.923,25.000 188.211 C 20.953 189.976,15.012 191.440,13.471 191.053 C 8.435 189.790,12.291 177.375,19.698 171.001 C 26.384 165.248,33.249 162.503,50.200 158.803 C 52.676 158.262,60.488 156.942,63.267 156.594 C 64.294 156.466,65.351 156.100,65.616 155.780 C 66.347 154.900,66.955 155.077,67.736 156.400 C 68.126 157.060,68.615 157.600,68.823 157.600 C 69.478 157.600,69.232 156.432,68.400 155.600 C 67.960 155.160,67.600 154.478,67.600 154.084 C 67.600 153.417,72.694 142.988,74.095 140.788 C 74.441 140.245,75.058 139.170,75.467 138.400 C 83.112 123.981,91.002 115.687,100.903 111.663 C 101.510 111.416,102.590 110.374,103.303 109.348 C 109.991 99.725,120.924 88.216,131.800 79.351 C 146.309 67.525,170.517 56.258,188.000 53.195 C 189.430 52.944,191.410 52.584,192.400 52.394 C 202.070 50.537,217.324 49.819,226.173 50.804 M79.800 153.238 C 78.480 154.127,76.005 155.564,74.300 156.432 C 70.628 158.300,70.615 158.361,73.127 162.118 C 74.187 163.703,75.735 166.134,76.568 167.520 C 78.115 170.094,78.922 170.492,79.100 168.769 C 79.357 166.299,81.258 157.444,82.013 155.200 C 83.330 151.289,83.057 151.046,79.800 153.238 " stroke="none" fill="none" fill-rule="evenodd"></path><path id="path4" d="M206.700 50.689 C 207.415 50.778,208.585 50.778,209.300 50.689 C 210.015 50.601,209.430 50.528,208.000 50.528 C 206.570 50.528,205.985 50.601,206.700 50.689 M221.905 50.683 C 222.402 50.779,223.122 50.775,223.505 50.675 C 223.887 50.575,223.480 50.496,222.600 50.501 C 221.720 50.505,221.407 50.587,221.905 50.683 M308.400 87.310 C 308.400 87.371,309.795 88.766,311.500 90.410 L 314.600 93.400 311.610 90.300 C 308.833 87.421,308.400 87.017,308.400 87.310 M114.575 95.300 L 113.400 96.600 114.700 95.425 C 115.912 94.330,116.184 94.000,115.875 94.000 C 115.806 94.000,115.221 94.585,114.575 95.300 M172.000 96.653 C 166.825 97.684,160.800 101.529,160.800 103.800 C 160.800 106.232,168.178 110.674,178.400 114.395 C 187.440 117.686,187.214 117.609,194.000 119.661 C 204.268 122.764,211.026 123.991,217.900 123.997 L 221.600 124.000 221.600 122.826 C 221.600 122.180,221.780 121.178,222.001 120.598 C 222.488 119.317,222.601 119.441,217.400 115.608 C 215.200 113.986,212.770 112.183,212.000 111.600 C 209.940 110.040,203.270 105.600,202.987 105.600 C 202.854 105.600,201.992 105.092,201.072 104.471 C 192.374 98.595,179.552 95.147,172.000 96.653 M256.000 112.402 C 255.230 112.578,253.340 112.937,251.800 113.200 C 250.260 113.463,248.370 113.834,247.600 114.025 C 246.830 114.215,245.120 114.635,243.800 114.957 C 238.482 116.256,230.003 118.712,227.477 119.684 C 226.859 119.922,225.710 120.135,224.922 120.158 C 223.605 120.197,223.479 120.307,223.345 121.536 C 223.264 122.271,222.861 123.171,222.448 123.536 C 221.853 124.062,221.600 125.197,221.229 129.000 C 220.073 140.870,219.147 148.800,218.917 148.800 C 218.710 148.800,216.333 147.185,216.000 146.818 C 215.890 146.697,214.720 145.802,213.400 144.829 C 212.080 143.855,210.370 142.582,209.600 141.999 C 207.829 140.658,199.685 135.200,199.454 135.200 C 199.359 135.200,198.048 134.449,196.541 133.531 C 184.340 126.100,172.453 124.248,163.446 128.374 C 161.031 129.480,157.600 132.620,157.600 133.723 C 157.600 135.629,163.443 139.553,170.600 142.453 C 176.546 144.862,184.490 147.618,191.200 149.598 C 192.850 150.085,194.650 150.624,195.200 150.795 C 196.258 151.125,198.612 151.755,201.100 152.373 C 203.732 153.026,208.065 153.564,212.828 153.829 C 218.090 154.122,218.800 153.833,218.800 151.395 C 218.800 150.226,219.368 149.235,219.794 149.661 C 220.529 150.395,220.380 152.056,219.501 152.936 C 218.680 153.756,218.484 154.443,218.265 157.256 C 218.122 159.095,217.833 162.220,217.623 164.200 C 217.413 166.180,217.052 169.687,216.821 171.994 C 216.030 179.896,216.380 179.535,212.399 176.556 C 198.440 166.109,185.090 158.874,176.676 157.197 C 165.638 154.996,150.861 160.648,154.227 165.784 C 156.311 168.966,169.608 174.764,184.200 178.855 C 197.539 182.594,200.948 183.221,208.948 183.412 C 212.440 183.495,215.346 183.617,215.406 183.682 C 215.563 183.851,215.007 189.404,213.591 201.793 C 212.951 207.402,213.177 207.307,208.573 203.895 C 193.756 192.914,182.538 187.092,172.497 185.169 C 168.213 184.348,158.947 185.319,162.515 186.214 C 165.883 187.060,165.207 191.176,160.782 196.775 C 159.204 198.772,159.143 198.938,159.847 199.353 C 163.160 201.305,178.968 206.555,190.800 209.634 C 196.347 211.077,205.270 212.159,209.720 211.928 L 212.200 211.800 212.097 213.600 C 212.041 214.590,211.816 216.795,211.597 218.500 C 211.379 220.205,211.013 223.085,210.783 224.900 C 208.774 240.818,209.118 239.750,206.581 237.939 C 205.550 237.202,203.782 235.923,202.653 235.096 C 196.216 230.381,190.556 226.800,183.745 223.135 L 180.891 221.598 178.448 224.669 C 177.104 226.358,174.182 229.697,171.954 232.088 C 169.726 234.480,167.970 236.499,168.052 236.575 C 168.264 236.773,178.145 239.858,181.000 240.618 C 182.320 240.969,184.480 241.521,185.800 241.844 C 187.120 242.168,188.830 242.590,189.600 242.783 C 193.194 243.683,196.743 244.071,201.959 244.133 C 208.083 244.205,208.374 244.109,208.400 242.000 C 208.418 240.505,209.080 239.618,209.594 240.400 C 210.247 241.395,210.054 242.382,209.000 243.436 C 208.325 244.111,208.000 244.879,208.000 245.798 C 208.000 246.548,207.835 248.024,207.634 249.080 C 207.433 250.136,207.066 252.620,206.819 254.600 C 206.572 256.580,206.205 259.280,206.004 260.600 C 205.803 261.920,205.441 264.530,205.200 266.400 C 204.959 268.270,204.601 270.880,204.405 272.200 C 204.208 273.520,203.848 276.040,203.603 277.800 C 203.063 281.694,202.465 285.259,201.995 287.400 C 201.274 290.683,199.926 296.234,199.615 297.200 C 199.438 297.750,199.065 299.010,198.787 300.000 C 197.658 304.011,194.211 314.107,192.329 318.915 C 190.258 324.203,190.186 324.843,191.581 325.590 C 192.284 325.966,192.461 325.895,192.763 325.116 C 192.958 324.612,193.518 323.210,194.005 322.000 C 196.067 316.885,199.841 305.950,201.184 301.200 C 201.464 300.210,201.831 298.950,202.000 298.400 C 202.464 296.891,203.103 294.411,203.547 292.400 C 203.765 291.410,204.127 289.790,204.352 288.800 C 205.050 285.714,205.524 283.118,205.994 279.800 C 206.244 278.040,206.606 275.520,206.800 274.200 C 207.135 271.917,207.524 269.126,208.445 262.400 C 209.078 257.773,209.564 254.256,209.979 251.300 C 210.187 249.815,210.471 247.727,210.609 246.660 C 210.911 244.332,211.188 244.320,216.950 246.376 C 220.943 247.801,222.375 248.134,228.507 249.065 C 234.220 249.933,234.160 250.214,229.599 244.000 C 228.711 242.790,227.142 240.572,226.113 239.070 C 224.091 236.118,223.802 236.022,220.400 237.170 C 219.850 237.355,218.590 237.734,217.600 238.011 C 216.610 238.289,215.007 238.767,214.037 239.074 C 211.733 239.805,211.573 239.559,212.039 236.000 C 212.254 234.350,212.615 231.560,212.841 229.800 C 213.067 228.040,213.403 225.430,213.589 224.000 C 213.775 222.570,214.128 219.690,214.374 217.600 C 215.006 212.224,215.003 212.230,216.337 213.217 C 217.434 214.028,223.411 216.254,226.000 216.816 C 232.649 218.258,235.439 218.619,244.348 219.192 C 251.991 219.684,251.728 219.960,248.373 214.960 C 246.824 212.651,244.554 208.869,243.330 206.556 C 241.590 203.267,240.963 202.406,240.452 202.603 C 240.094 202.742,238.900 203.041,237.800 203.268 C 233.215 204.214,227.299 205.776,221.400 207.599 C 219.860 208.075,218.240 208.566,217.800 208.690 C 217.360 208.814,216.783 209.085,216.518 209.292 C 215.923 209.756,215.175 209.351,215.402 208.687 C 215.494 208.419,215.767 206.400,216.008 204.200 C 216.250 202.000,216.617 198.670,216.824 196.800 C 217.031 194.930,217.391 191.600,217.624 189.400 C 218.143 184.488,218.073 184.558,221.223 185.852 C 222.640 186.434,224.340 187.049,225.000 187.220 C 225.660 187.391,227.190 187.792,228.400 188.112 C 234.229 189.651,239.461 190.216,253.719 190.847 C 265.479 191.367,265.705 191.331,264.252 189.185 C 260.047 182.972,258.284 177.352,260.043 175.762 C 261.261 174.661,268.052 174.781,271.200 175.959 C 273.065 176.658,273.263 176.677,272.499 176.089 C 271.507 175.325,268.106 173.989,265.000 173.144 C 262.382 172.432,250.356 172.417,246.800 173.122 C 240.923 174.286,239.575 174.586,234.600 175.840 C 231.740 176.561,228.140 177.536,226.600 178.008 C 222.593 179.236,221.153 179.636,219.861 179.884 L 218.722 180.102 218.987 176.951 C 219.132 175.218,219.409 172.450,219.602 170.800 C 219.795 169.150,220.162 165.550,220.418 162.800 C 221.280 153.528,220.944 153.969,225.800 155.709 C 229.800 157.142,233.977 158.112,239.400 158.868 C 244.712 159.608,273.566 159.586,277.729 158.838 L 280.858 158.277 280.596 156.373 C 280.275 154.033,280.781 152.984,282.386 152.663 C 286.759 151.788,276.825 144.013,268.800 142.029 C 263.649 140.756,255.398 140.886,248.400 142.353 C 247.410 142.560,245.700 142.916,244.600 143.145 C 239.458 144.211,234.824 145.488,227.963 147.730 C 225.013 148.694,222.447 149.348,222.261 149.182 C 221.956 148.912,222.212 145.341,223.217 135.800 C 223.403 134.040,223.683 131.099,223.839 129.264 C 224.170 125.387,224.441 125.135,227.158 126.177 C 228.171 126.566,229.585 127.045,230.300 127.242 C 231.015 127.439,232.275 127.794,233.100 128.030 C 246.156 131.774,282.019 131.446,286.989 127.537 C 290.417 124.841,282.899 116.623,274.431 113.810 C 269.340 112.119,260.273 111.427,256.000 112.402 M216.728 180.869 C 216.658 181.346,216.399 181.804,216.152 181.885 C 215.870 181.977,215.777 181.657,215.899 181.016 C 216.135 179.781,216.908 179.644,216.728 180.869 M77.324 200.200 C 77.326 201.520,77.401 202.012,77.490 201.293 C 77.579 200.574,77.577 199.494,77.486 198.893 C 77.395 198.292,77.322 198.880,77.324 200.200 M260.800 201.810 C 260.800 201.925,261.841 203.050,263.114 204.310 C 266.234 207.398,269.034 211.251,271.183 215.413 L 272.967 218.866 274.736 218.601 C 282.108 217.495,281.409 211.975,273.191 206.394 C 269.109 203.622,260.800 200.548,260.800 201.810 M213.836 208.200 C 214.187 209.598,213.709 211.200,212.940 211.200 C 212.418 211.200,212.342 210.915,212.543 209.700 C 212.680 208.875,212.793 207.975,212.796 207.700 C 212.804 206.802,213.578 207.175,213.836 208.200 M157.600 218.000 C 157.270 218.213,156.674 218.391,156.275 218.394 C 155.009 218.405,150.551 220.784,148.845 222.359 C 146.855 224.195,146.652 225.746,148.210 227.209 L 149.220 228.158 150.465 226.579 C 151.150 225.711,153.416 223.335,155.501 221.300 C 158.753 218.125,159.693 216.648,157.600 218.000 M246.700 231.913 C 244.402 232.071,244.385 232.233,246.350 235.126 C 247.670 237.070,250.939 243.488,253.365 248.900 L 254.038 250.400 258.945 250.400 C 266.445 250.400,272.190 249.292,274.135 247.471 L 275.400 246.287 273.200 244.444 C 271.990 243.430,269.110 240.698,266.800 238.372 C 262.375 233.917,261.734 233.546,256.600 232.470 C 254.317 231.992,249.500 231.721,246.700 231.913 M114.000 290.125 C 114.000 290.194,114.585 290.779,115.300 291.425 L 116.600 292.600 115.425 291.300 C 114.330 290.088,114.000 289.816,114.000 290.125 M315.178 291.900 L 313.800 293.400 315.300 292.022 C 316.696 290.738,316.984 290.400,316.678 290.400 C 316.612 290.400,315.937 291.075,315.178 291.900 M122.400 298.525 C 122.400 298.594,122.985 299.179,123.700 299.825 L 125.000 301.000 123.825 299.700 C 122.730 298.488,122.400 298.216,122.400 298.525 M188.501 328.518 C 188.299 328.783,187.887 329.630,187.586 330.400 C 187.284 331.170,186.800 331.980,186.511 332.200 C 186.081 332.527,186.100 332.765,186.615 333.500 C 187.493 334.754,188.116 334.640,187.818 333.281 C 187.601 332.294,187.739 332.082,188.986 331.487 C 189.993 331.007,190.400 330.551,190.400 329.903 C 190.400 328.775,189.053 327.793,188.501 328.518 M206.900 335.476 C 207.285 335.576,207.915 335.576,208.300 335.476 C 208.685 335.375,208.370 335.293,207.600 335.293 C 206.830 335.293,206.515 335.375,206.900 335.476 " stroke="none" fill="#fcb75e" fill-rule="evenodd"></path></g></svg>